<svg xmlns="http://www.w3.org/2000/svg" xmlns:xlink="http://www.w3.org/1999/xlink" version="1.1" x="0px" y="0px" viewBox="0 0 100 100" enable-background="new 0 0 100 100" xml:space="preserve"><g><path fill="none" d="M33.917,40.916c0.226,0.227,0.461,0.368,0.69,0.402c0.077,0.012,0.152,0.011,0.227-0.002   c0.144-0.024,0.275-0.096,0.394-0.206c1.46,4.536,4.253,9.056,7.779,11.751c2.031,1.559,4.304,2.51,6.704,2.51   c2.454,0,4.775-0.996,6.84-2.609c3.463-2.711,6.205-7.173,7.646-11.651c0.119,0.11,0.248,0.181,0.394,0.205h0.001   c0.258,0.045,0.526-0.059,0.791-0.281c0.494-0.419,0.967-1.257,1.292-2.32c0.11-0.354,0.203-0.733,0.271-1.129   c0.046-0.259,0.082-0.513,0.105-0.761c0.001-0.008,0.001-0.016,0.002-0.024c-0.001,0.008-0.001,0.015-0.002,0.023   c0.001-0.01,0.001-0.019,0.002-0.029c0,0.002,0,0.004,0,0.006c0-0.011,0.001-0.022,0.002-0.034   c0.043-0.474,0.052-0.926,0.023-1.336c-0.008-0.116-0.029-0.214-0.043-0.322c-0.087-0.686-0.275-1.231-0.555-1.541   c-0.086-0.095-0.176-0.181-0.277-0.229c-0.057-0.026-0.115-0.044-0.178-0.056c-0.24-0.042-0.49,0.047-0.737,0.24l-0.013,0.016   c0-0.001-0.002-0.002-0.002-0.004c-0.004,0.003-0.006,0.004-0.008,0.006c-0.002-0.014-0.002-0.029-0.004-0.044   c-0.934-3.546-2.111-5.716-3.324-7.009c-0.234-0.127-0.479-0.241-0.75-0.319c-0.031,0.524,0.563,1.318,0.627,2.092   c-0.211-0.099-0.42-0.204-0.631-0.313c-1.471-0.76-2.959-1.704-5.018-1.78c-0.273-0.01-0.561-0.014-0.855-0.014   c-0.293,0.001-0.594,0.005-0.898,0.012c-1.773,0.633-3.602,0.845-5.279,0.836c-0.461-0.002-0.911-0.021-1.344-0.053   c-3.035-0.22-5.293-1.05-5.293-1.05c-0.445-0.041-0.866-0.051-1.265-0.033c-5.988,0.27-6.985,6.819-7.068,7.612   c-0.001,0.02-0.003,0.04-0.003,0.06h-0.001c-0.254-0.204-0.512-0.299-0.758-0.255c-0.001,0-0.001,0-0.001,0   c-0.109,0.019-0.21,0.064-0.303,0.131c-0.222,0.158-0.395,0.457-0.524,0.839c-0.071,0.996-0.115,2.002-0.131,3.042   c0.014,0.097,0.023,0.191,0.041,0.289C32.747,39.068,33.305,40.306,33.917,40.916z M65.382,41.034   c-0.264,0.222-0.532,0.326-0.79,0.281C64.85,41.359,65.117,41.256,65.382,41.034z M56.55,52.76   c3.462-2.71,6.206-7.173,7.646-11.651c0,0.001,0,0.001,0.002,0.001C62.756,45.588,60.014,50.05,56.55,52.76   c-2.063,1.614-4.385,2.61-6.839,2.61C52.164,55.37,54.486,54.374,56.55,52.76z M35.227,41.109c-0.119,0.11-0.249,0.182-0.395,0.206   C34.977,41.291,35.108,41.219,35.227,41.109z"/><polygon fill="none" points="74.001,85.999 77.752,84.957 75.043,82.248  "/><path fill="none" d="M84.2,74.238c-0.317-0.316-0.831-0.316-1.147,0l-7.482,7.482l2.709,2.709l7.482-7.482   c0.316-0.316,0.316-0.831,0-1.148L84.2,74.238z"/><path d="M80,64c0.682,0,1.348,0.057,2.005,0.141c-3.604-4.021-7.233-4.33-8.327-4.586c-3.373-0.789-7.457-0.453-9.635-1.133   c-0.382,3.189-6.521,5.727-14.042,5.727c-7.52,0-13.661-2.537-14.043-5.727c-2.178,0.682-6.262,0.344-9.635,1.133   c-1.712,0.4-9.672,0.911-13.978,15.729c-0.583,2.014-0.378,4.2,0.572,5.993c3.528,6.672,22.084,8.727,37.084,8.724   c5.438,0.001,11.345-0.271,16.832-0.933C65.051,86.488,64,83.366,64,80C64,71.178,71.178,64,80,64z"/><path d="M67.051,36.824c0.001-0.008,0.001-0.015,0.002-0.023c0-0.002,0-0.004,0-0.006C67.052,36.806,67.052,36.814,67.051,36.824z"/><path d="M32.274,42.648c1.587,4.27,4.099,8.417,7.206,11.45c1.758,1.719,3.706,3.08,5.784,3.902   c1.428,0.566,2.919,0.881,4.451,0.881c1.53,0,3.021-0.313,4.45-0.881c2.149-0.852,4.163-2.277,5.968-4.082   c3.03-3.027,5.48-7.109,7.037-11.306c1.196-0.353,2.451-2.594,2.962-5.457c0.556-3.107,0.03-5.817-1.168-6.269   c0.043-0.758,0.071-1.525,0.069-2.313c-0.028-11.262-6.631-17.81-17.045-18.508c-9.077-0.608-15.917,2.997-19.03,8.994   c-1.048,2.017-1.646,4.54-1.876,7.281c-0.35,1.427-0.555,2.911-0.555,4.445h0.034c-0.001,0.012-0.002,0.023-0.002,0.036   c-0.022,0.002-0.045,0.003-0.066,0.008c-1.328,0.231-1.933,3.064-1.35,6.327C29.675,40.155,31.027,42.474,32.274,42.648z    M32.572,34.253c0.129-0.382,0.302-0.681,0.524-0.839c0.093-0.067,0.194-0.112,0.303-0.131c0,0,0,0,0.001,0   c0.246-0.044,0.504,0.051,0.758,0.255h0.001c0-0.02,0.002-0.04,0.003-0.06c0.083-0.793,1.08-7.342,7.068-7.612   c0.399-0.018,0.82-0.008,1.265,0.033c0,0,2.258,0.83,5.293,1.05c0.434,0.031,0.883,0.05,1.344,0.053   c1.678,0.009,3.506-0.203,5.279-0.836c0.305-0.007,0.605-0.011,0.898-0.012c0.295,0,0.582,0.004,0.855,0.014   c2.059,0.076,3.547,1.02,5.018,1.78c0.211,0.109,0.42,0.214,0.631,0.313c-0.063-0.774-0.658-1.568-0.627-2.092   c0.271,0.078,0.516,0.192,0.75,0.319c1.213,1.293,2.391,3.463,3.324,7.009c0.002,0.015,0.002,0.03,0.004,0.044   c0.002-0.002,0.004-0.003,0.008-0.006c0,0.002,0.002,0.003,0.002,0.004l0.013-0.016c0.247-0.193,0.497-0.282,0.737-0.24   c0.063,0.012,0.121,0.03,0.178,0.056c0.102,0.048,0.191,0.134,0.277,0.229c0.279,0.31,0.468,0.855,0.555,1.541   c0.014,0.108,0.035,0.207,0.043,0.322c0.028,0.41,0.02,0.862-0.023,1.336c-0.001,0.012-0.002,0.023-0.002,0.034   c-0.001,0.008-0.001,0.016-0.002,0.024c-0.023,0.248-0.06,0.502-0.105,0.761c-0.067,0.396-0.16,0.775-0.271,1.129   c-0.325,1.063-0.798,1.901-1.292,2.32c-0.265,0.222-0.533,0.326-0.791,0.281h-0.001c-0.146-0.024-0.274-0.095-0.394-0.205   c-1.441,4.478-4.184,8.94-7.646,11.651c-2.064,1.613-4.386,2.609-6.84,2.609c-2.4,0-4.673-0.951-6.704-2.51   c-3.526-2.695-6.319-7.215-7.779-11.751c-0.119,0.11-0.25,0.182-0.394,0.206c-0.075,0.013-0.15,0.014-0.227,0.002   c-0.229-0.034-0.464-0.175-0.69-0.402c-0.612-0.61-1.17-1.848-1.435-3.332c-0.018-0.098-0.027-0.192-0.041-0.289   C32.457,36.255,32.501,35.249,32.572,34.253z"/><path d="M49.711,55.37c2.454,0,4.775-0.996,6.839-2.61C54.486,54.374,52.164,55.37,49.711,55.37z"/><path d="M64.197,41.11c-0.002,0-0.002,0-0.002-0.001c-1.439,4.478-4.184,8.941-7.646,11.651   C60.014,50.05,62.756,45.588,64.197,41.11z"/><path d="M64.592,41.315c0.258,0.045,0.526-0.059,0.79-0.281C65.117,41.256,64.85,41.359,64.592,41.315z"/><path d="M34.832,41.315c0.146-0.024,0.276-0.096,0.395-0.206C35.108,41.219,34.977,41.291,34.832,41.315z"/><path d="M80,66c-7.721,0-14,6.279-14,14s6.279,14,14,14c7.719,0,14-6.279,14-14S87.719,66,80,66z M74.001,85.999l1.042-3.751   l2.709,2.709L74.001,85.999z M85.762,76.947l-7.482,7.482l-2.709-2.709l7.482-7.482c0.316-0.316,0.83-0.316,1.147,0l1.562,1.561   C86.078,76.116,86.078,76.631,85.762,76.947z"/></g></svg>