<svg xmlns="http://www.w3.org/2000/svg" xmlns:xlink="http://www.w3.org/1999/xlink" version="1.1" x="0px" y="0px" viewBox="0 0 100 100" enable-background="new 0 0 100 100" xml:space="preserve"><g><path fill="none" d="M72.623,55.225H19.031c-1.847,0-3.349,1.503-3.349,3.35l4.462,25.864c0.003,1.884,1.506,3.388,3.353,3.388   h44.66c1.846,0,3.349-1.504,3.349-3.35l4.47-25.939C75.972,56.728,74.469,55.225,72.623,55.225z M45.827,72.685   c-0.886,0-1.606-0.718-1.606-1.606c0-0.885,0.72-1.604,1.606-1.604c0.887,0,1.605,0.72,1.605,1.604   C47.432,71.967,46.714,72.685,45.827,72.685z"/><path fill="none" d="M75.83,17.789c-6.066,0-11.002,4.935-11.002,11s4.936,11,11.002,11c6.064,0,11-4.935,11-11   S81.895,17.789,75.83,17.789z M82.113,35.219c-0.193,0.19-0.446,0.285-0.698,0.285c-0.26,0-0.519-0.101-0.716-0.301l-5.585-5.715   c-0.028-0.029-0.04-0.066-0.063-0.098c-0.055-0.071-0.111-0.14-0.145-0.224c-0.035-0.083-0.043-0.172-0.053-0.261   c-0.006-0.04-0.023-0.075-0.023-0.116v-4.836c0-0.552,0.447-1,1-1c0.552,0,1,0.448,1,1v4.428l5.301,5.424   C82.516,34.2,82.509,34.833,82.113,35.219z"/><path fill="#000000" d="M44.278,49.986c-0.551-0.868-0.915-2.013-1.103-2.719c-0.795,0.834-1.759,2.048-2.883,3.821   c-0.013,0.021-0.027,0.041-0.04,0.063c0,0-1.7-7.642-2.095-11.458c-0.053,0.077-0.104,0.153-0.165,0.23   c-0.316,0.404-0.732,0.796-1.282,1.146l-8.295,3.609c-2.595,0.998-3.692,2.494-3.692,2.494c-1.742,2.578-2.781,5.345-3.403,7.606   h21.483C43.369,52.162,44.138,50.682,44.278,49.986z"/><path fill="#000000" d="M66.938,47.171c0,0-1.099-1.496-3.693-2.494c0,0-5.122-1.556-7.848-3.309   c-0.216-0.139-0.416-0.279-0.598-0.419c-0.08-0.09-0.33-0.267-0.411-0.36c-0.271-0.192-0.407-0.375-0.667-0.714   c-0.402,3.879-1.959,11.308-1.959,11.308c-1.077-1.775-2.037-2.998-2.857-3.846c-0.373,1.31-0.778,2.182-1.165,2.759   c0.453,1.607,0.818,3.22,1.105,4.681h21.407C69.621,52.41,68.597,49.628,66.938,47.171z"/><path fill="#000000" d="M35.135,29.588c0.218,1.386,0.897,1.81,1.094,1.906c0.531,1.923,1.495,3.792,2.703,5.358   c0.015,0.271,0.011,0.663-0.072,1.117c0.611,2.013,2.208,5.686,5.971,7.15c0.318,0.124,0.65,0.234,1,0.324   c0.402-0.113,0.783-0.249,1.145-0.407c3.553-1.542,5.221-5.069,5.922-7.153c-0.035-0.239-0.058-0.496-0.061-0.768   c0.15-0.177,0.296-0.358,0.438-0.545l0.09-0.118c0.973-1.29,1.766-2.743,2.301-4.223c0.961-0.96,1.453-3.296,1.453-3.296   c0.637-1.788,0.449-2.701,0.155-3.161c0.091-0.271,1.622-5.009-0.54-8.662c0,0-0.769-3.455-4.836-4.991   c-3.762-2.301-9.367-0.919-9.367-0.919c-6.833,1.15-8.296,9.189-8.296,9.189c-0.407,3.668,0.576,5.963,0.617,6.059   C34.5,27.316,35.135,29.588,35.135,29.588z"/><path fill="#000000" d="M71.172,89.004H20.483c-0.493,0-0.894,0.398-0.894,0.893s0.4,0.893,0.894,0.893h50.688   c0.494,0,0.893-0.398,0.893-0.893S71.666,89.004,71.172,89.004z"/><path fill="#000000" d="M72.623,54.777h-2.371H48.845h-6.042H21.319h-2.288c-2.093,0-3.796,1.703-3.792,3.834l4.462,25.865   c0,2.094,1.703,3.795,3.796,3.795h44.66c2.093,0,3.796-1.701,3.792-3.759l4.469-25.938C76.418,56.48,74.716,54.777,72.623,54.777z    M71.506,84.477c0,1.846-1.503,3.35-3.349,3.35h-44.66c-1.847,0-3.35-1.504-3.353-3.388l-4.462-25.864   c0-1.847,1.502-3.35,3.349-3.35h53.592c1.846,0,3.349,1.503,3.353,3.313L71.506,84.477z"/><circle fill="#000000" cx="45.827" cy="71.079" r="1.605"/><path fill="#000000" d="M75.83,15.789c-7.17,0-13.002,5.832-13.002,13s5.832,13,13.002,13c7.168,0,13-5.832,13-13   S82.998,15.789,75.83,15.789z M75.83,39.789c-6.066,0-11.002-4.935-11.002-11s4.936-11,11.002-11c6.064,0,11,4.935,11,11   S81.895,39.789,75.83,39.789z"/><path fill="#000000" d="M76.83,28.381v-4.428c0-0.552-0.448-1-1-1c-0.553,0-1,0.448-1,1v4.836c0,0.041,0.018,0.076,0.023,0.116   c0.01,0.089,0.018,0.177,0.053,0.261c0.033,0.084,0.09,0.153,0.145,0.224c0.023,0.032,0.035,0.069,0.063,0.098l5.585,5.715   c0.197,0.201,0.456,0.301,0.716,0.301c0.252,0,0.505-0.095,0.698-0.285c0.396-0.386,0.402-1.02,0.018-1.414L76.83,28.381z"/></g></svg>