<svg xmlns="http://www.w3.org/2000/svg" xmlns:xlink="http://www.w3.org/1999/xlink" version="1.1" x="0px" y="0px" viewBox="0 0 100 100" enable-background="new 0 0 100 100" xml:space="preserve"><g><path d="M80,64c0.824,0,1.629,0.082,2.42,0.203c-0.26-0.24-0.43-0.369-0.43-0.369c-2.004-4.45-14.237-8.307-14.237-8.307   c-4.567-1.608-5.958-3.215-6.383-4.037c-0.048-0.1-0.086-0.188-0.118-0.266c0-0.016,0-0.022,0-0.035c0,0-0.027-0.103-0.07-0.254   c0-0.002,0-0.004,0-0.004c-0.177-0.638-0.611-2.252-0.611-2.656c0,0-0.021,0.13-0.07,0.355c-0.033-0.396-0.043-0.813-0.021-1.263   c0,0-0.035,0.041-0.104,0.115c1.52-1.943,2.747-4.165,3.563-6.427c1.394-1.39,2.104-4.774,2.104-4.774   c0.925-2.588,0.651-3.911,0.229-4.579c0.131-0.392,2.35-7.256-0.787-12.548c0,0-1.109-5.005-7.006-7.229   c-5.449-3.337-13.571-1.335-13.571-1.335C35.01,12.259,32.89,23.903,32.89,23.903c-0.59,5.317,0.834,8.642,0.894,8.778   c-0.507,1.258,0.413,4.549,0.413,4.549c0.315,2.009,1.299,2.623,1.584,2.761c0.688,2.495,1.878,4.926,3.375,7.038   c-0.01-0.01-0.021-0.019-0.031-0.032c0,0,0.165,0.817,0.013,1.96c-0.022-0.117-0.033-0.186-0.033-0.186   c0,0.468-0.567,2.17-0.64,2.393c-0.006,0.018-0.011,0.021-0.017,0.035c-0.46,0.607-0.917,1.17-1.372,1.681   c-3.688,2.853-12.549,5.539-12.549,5.539c-3.856,1.479-5.487,3.705-5.487,3.705c-5.709,8.454-6.377,16.897-6.377,16.897   c0.074,4.303,1.928,4.746,1.928,4.746C27.716,89.622,48.6,89.967,48.6,89.967c6.753,0.145,12.884-0.35,18.109-1.084   C64.999,86.346,64,83.288,64,80C64,71.178,71.178,64,80,64z"/><path d="M80,66c-7.721,0-14,6.279-14,14s6.279,14,14,14c7.719,0,14-6.279,14-14S87.719,66,80,66z M79.999,87.268   c-1.175,0-2.128-0.952-2.128-2.127c0-1.176,0.953-2.129,2.128-2.129s2.128,0.953,2.128,2.129   C82.127,86.315,81.174,87.268,79.999,87.268z M85.307,82.173c-0.582,0.582-1.523,0.582-2.105,0c-1.766-1.766-4.639-1.766-6.403,0   c-0.292,0.292-0.674,0.438-1.055,0.438c-0.382,0-0.763-0.147-1.054-0.438c-0.582-0.579-0.582-1.522,0-2.104   c2.929-2.926,7.69-2.926,10.617,0C85.889,80.65,85.889,81.591,85.307,82.173z M89.566,78.799c-0.582,0.581-1.524,0.581-2.105,0   c-1.992-1.99-4.643-3.089-7.459-3.089s-5.466,1.099-7.458,3.089c-0.291,0.292-0.672,0.438-1.054,0.438   c-0.383,0-0.762-0.146-1.053-0.438c-0.582-0.58-0.582-1.521,0-2.105c2.553-2.553,5.951-3.961,9.563-3.961s7.008,1.408,9.563,3.961   C90.145,77.277,90.145,78.221,89.566,78.799z"/></g></svg>