<svg xmlns="http://www.w3.org/2000/svg" xmlns:xlink="http://www.w3.org/1999/xlink" version="1.1" x="0px" y="0px" viewBox="0 0 100 100" enable-background="new 0 0 100 100" xml:space="preserve"><g><path fill="none" d="M76.816,19.187c-6.066,0-11.002,4.935-11.002,11s4.936,11,11.002,11c6.064,0,11-4.935,11-11   S82.881,19.187,76.816,19.187z M83.1,36.617c-0.193,0.19-0.446,0.285-0.698,0.285c-0.26,0-0.519-0.101-0.716-0.301l-5.585-5.715   c-0.028-0.029-0.04-0.066-0.063-0.098c-0.055-0.071-0.111-0.14-0.145-0.224c-0.035-0.083-0.043-0.172-0.053-0.261   c-0.006-0.04-0.023-0.075-0.023-0.116v-4.836c0-0.552,0.447-1,1-1c0.552,0,1,0.448,1,1v4.428l5.301,5.424   C83.502,35.597,83.495,36.23,83.1,36.617z"/><path fill="#000000" d="M76.816,17.187c-7.17,0-13.002,5.832-13.002,13s5.832,13,13.002,13c7.168,0,13-5.832,13-13   S83.984,17.187,76.816,17.187z M76.816,41.187c-6.066,0-11.002-4.935-11.002-11s4.936-11,11.002-11c6.064,0,11,4.935,11,11   S82.881,41.187,76.816,41.187z"/><path fill="#000000" d="M77.816,29.779v-4.428c0-0.552-0.448-1-1-1c-0.553,0-1,0.448-1,1v4.836c0,0.041,0.018,0.076,0.023,0.116   c0.01,0.089,0.018,0.177,0.053,0.261c0.033,0.084,0.09,0.153,0.145,0.224c0.023,0.032,0.035,0.069,0.063,0.098l5.585,5.715   c0.197,0.201,0.456,0.301,0.716,0.301c0.252,0,0.505-0.095,0.698-0.285c0.396-0.386,0.402-1.02,0.018-1.414L77.816,29.779z"/></g><g><path fill="none" d="M23.771,89.129h46.087c1.906,0,3.458-1.553,3.458-3.457l4.611-26.77c-0.004-1.867-1.556-3.418-3.46-3.418   H19.162c-1.907,0-3.457,1.551-3.457,3.457l4.605,26.691C20.313,87.576,21.864,89.129,23.771,89.129z M46.814,70.189   c0.916,0,1.657,0.742,1.657,1.655c0,0.918-0.741,1.657-1.657,1.657c-0.915,0-1.657-0.739-1.657-1.657   C45.157,70.932,45.899,70.189,46.814,70.189z"/><path fill="none" d="M46.816,43.509c5.989,0,10.918-6.612,11.556-15.109c0.079-0.548,0.122-1.11,0.131-1.68l-1.869,2.147   c1.03-2.284-2.642-8.095-2.642-8.095c-6.187,4.475-15.39,0-15.39,0c-2.777,1.096-1.461,8.904-1.461,8.904   c-0.692-0.484-1.328-0.734-1.847-0.865C36.059,37.11,40.925,43.509,46.816,43.509z"/><path fill="#000000" d="M33.653,28.329c0.01,0.125,0.02,0.25,0.031,0.375c0.84,9.501,6.398,16.84,13.131,16.84   c6.821,0,12.436-7.531,13.161-17.211c0.102-0.694,0.153-1.407,0.153-2.132s-0.052-1.437-0.153-2.132   c-0.974-6.729-6.495-11.884-13.161-11.884c-6.667,0-12.189,5.158-13.163,11.889c-0.1,0.694-0.152,1.405-0.152,2.127   c0,0.295,0.011,0.585,0.027,0.875C33.553,27.499,33.593,27.917,33.653,28.329z M38.603,20.772c0,0,9.203,4.475,15.39,0   c0,0,3.672,5.811,2.642,8.095l1.869-2.147c-0.009,0.57-0.052,1.132-0.131,1.68c-0.638,8.498-5.567,15.109-11.556,15.109   c-5.891,0-10.757-6.399-11.521-14.698c0.519,0.13,1.154,0.381,1.847,0.865C37.141,29.676,35.826,21.868,38.603,20.772z"/><path fill="#000000" d="M36.254,43.336c-6.929,0.632-12.667,5.333-14.846,11.688h21.308C39.842,50.8,36.296,45.22,36.254,43.336z"/><path fill="#000000" d="M57.38,43.335c-0.042,1.884-3.929,7.464-7.081,11.688h21.924C70.044,48.669,64.306,43.968,57.38,43.335z"/><path fill="#000000" d="M48.003,50.398c1.224-0.632,2.17-1.947,2.17-3.285c0,0-1.819,0.805-3.673,0.805s-3.673-0.805-3.673-0.805   c0,1.337,0.947,2.653,2.17,3.285l-0.323,4.625h3.652L48.003,50.398z"/><path fill="#000000" d="M72.969,90.344H20.66c-0.509,0-0.922,0.412-0.922,0.922s0.414,0.921,0.922,0.921h52.309   c0.51,0,0.922-0.411,0.922-0.921S73.479,90.344,72.969,90.344z"/><path fill="#000000" d="M23.771,89.59h46.087c2.161,0,3.918-1.757,3.914-3.881l4.611-26.768c0-2.161-1.757-3.918-3.916-3.918   h-2.244H50.299h-1.973h-3.652h-1.958H21.409h-2.247c-2.16,0-3.918,1.757-3.915,3.957l4.605,26.691   C19.853,87.833,21.61,89.59,23.771,89.59z M19.162,55.484h55.305c1.904,0,3.456,1.551,3.46,3.418l-4.611,26.77   c0,1.904-1.552,3.457-3.458,3.457H23.771c-1.906,0-3.457-1.553-3.46-3.496l-4.605-26.691   C15.705,57.035,17.255,55.484,19.162,55.484z"/><path fill="#000000" d="M46.814,73.502c0.916,0,1.657-0.739,1.657-1.657c0-0.913-0.741-1.655-1.657-1.655   c-0.915,0-1.657,0.742-1.657,1.655C45.157,72.763,45.899,73.502,46.814,73.502z"/></g></svg>