<svg xmlns="http://www.w3.org/2000/svg" xmlns:xlink="http://www.w3.org/1999/xlink" version="1.1" x="0px" y="0px" viewBox="0 0 100 100" enable-background="new 0 0 100 100" xml:space="preserve"><g><path d="M41.993,68.271c-0.019,0.024-0.039,0.061-0.058,0.09c0,0-2.459-11.051-3.031-16.568c-0.075,0.111-0.151,0.223-0.236,0.334   c-0.458,0.585-1.059,1.152-1.855,1.656l-11.994,5.218c-3.751,1.442-5.34,3.606-5.34,3.606c-5.556,8.227-6.206,16.445-6.206,16.445   c0.072,4.184,1.876,4.612,1.876,4.612c8.904,3.978,22.291,5.667,29.586,6.329c0.177-9.021,2.704-21.756,3.021-23.316   c-0.794-1.258-1.321-2.91-1.594-3.937C45.013,63.952,43.619,65.708,41.993,68.271z"/><path d="M80,64c0.493,0,0.979,0.029,1.462,0.074c-0.297-0.488-0.606-0.979-0.938-1.467c0,0-1.588-2.164-5.342-3.605   c0,0-7.406-2.25-11.347-4.785c-0.312-0.199-0.604-0.402-0.864-0.604c-0.117-0.133-0.479-0.385-0.594-0.521   c-0.395-0.277-0.59-0.541-0.965-1.031c-0.582,5.609-2.834,16.354-2.834,16.354c-1.557-2.563-2.945-4.334-4.131-5.563   c-0.538,1.896-1.125,3.153-1.684,3.988c1.844,6.541,2.692,21.594,2.774,23.137c2.94-0.271,6.825-0.711,10.979-1.389   C64.934,86.104,64,83.161,64,80C64,71.178,71.178,64,80,64z"/><path d="M60.223,49.181c-0.052-0.346-0.084-0.716-0.089-1.111c0.218-0.257,0.429-0.52,0.634-0.788l0.129-0.172   c1.404-1.865,2.558-3.968,3.324-6.107c1.389-1.387,2.102-4.765,2.102-4.765c0.928-2.584,0.648-3.906,0.23-4.57   c0.133-0.392,2.348-7.242-0.779-12.525c0,0-1.108-4.996-6.994-7.216c-5.438-3.328-13.542-1.332-13.542-1.332   C35.356,12.26,33.24,23.883,33.24,23.883c-0.589,5.305,0.833,8.625,0.892,8.761c-0.506,1.257,0.412,4.541,0.412,4.541   c0.315,2.005,1.298,2.618,1.583,2.756c0.768,2.782,2.161,5.483,3.908,7.75c0.021,0.391,0.016,0.957-0.104,1.614   c0.883,2.912,3.193,8.222,8.633,10.339c0.459,0.18,0.941,0.34,1.448,0.469c0.58-0.163,1.13-0.359,1.653-0.59   C56.797,57.294,59.209,52.195,60.223,49.181z"/><path d="M83.855,76.25h-3.23h-0.001v3.125h3.728C84.301,78.191,84.123,77.148,83.855,76.25z"/><path d="M80.625,85.001v3.618c0.082-0.063,0.175-0.133,0.283-0.223c0.377-0.313,0.889-0.807,1.4-1.5   c0.379-0.518,0.76-1.145,1.09-1.896H80.625z"/><path d="M83.848,83.749c0.269-0.897,0.451-1.935,0.502-3.124h-3.725v3.124H83.848z"/><path d="M79.375,75.001V71.38c-0.082,0.062-0.175,0.134-0.284,0.224c-0.376,0.313-0.887,0.806-1.399,1.502   c-0.379,0.516-0.76,1.144-1.09,1.896H79.375z"/><path d="M80,66c-7.721,0-14,6.279-14,14s6.279,14,14,14c7.719,0,14-6.279,14-14S87.719,66,80,66z M79.999,90   c-5.521-0.001-9.998-4.477-9.999-10.001c0.001-5.521,4.479-9.998,9.999-9.999c5.524,0.001,10,4.479,10.001,9.999   C89.999,85.523,85.523,89.999,79.999,90z"/><path d="M75.65,79.375h3.725V76.25h-3.223C75.883,77.148,75.701,78.186,75.65,79.375z"/><path d="M82.794,88.281c1.788-0.604,3.313-1.766,4.375-3.281h-2.431C84.189,86.422,83.468,87.504,82.794,88.281z"/><path d="M85.15,83.749h2.742c0.457-0.958,0.742-2.011,0.822-3.124H85.6C85.555,81.787,85.395,82.83,85.15,83.749z"/><path d="M77.207,71.717c-1.789,0.604-3.316,1.766-4.377,3.284h2.43C75.811,73.576,76.533,72.494,77.207,71.717z"/><path d="M79.375,88.618V85h-2.771C77.506,87.057,78.788,88.178,79.375,88.618z"/><path d="M87.17,75.001c-1.059-1.519-2.588-2.681-4.378-3.284c0.675,0.775,1.397,1.858,1.948,3.284H87.17z"/><path d="M85.6,79.375h3.116c-0.079-1.113-0.366-2.166-0.823-3.125h-2.744C85.396,77.17,85.557,78.213,85.6,79.375z"/><path d="M80.625,71.383v3.618l2.771,0.001C82.494,72.945,81.213,71.822,80.625,71.383z"/><path d="M76.145,83.749h3.23h0.001v-3.124h-3.729C75.697,81.809,75.877,82.852,76.145,83.749z"/><path d="M72.831,85c1.062,1.516,2.587,2.678,4.375,3.281c-0.674-0.777-1.396-1.859-1.944-3.281H72.831z"/><path d="M74.4,80.626h-3.117c0.08,1.112,0.367,2.165,0.824,3.124h2.742C74.604,82.83,74.443,81.787,74.4,80.626z"/><path d="M74.85,76.25h-2.742c-0.457,0.959-0.744,2.012-0.824,3.125H74.4C74.443,78.214,74.604,77.17,74.85,76.25z"/></g></svg>